#N canvas 276 177 703 544 10;
#X obj 42 339 noise~;
#X obj 233 482 dac~;
#X obj 21 52 bng 29 250 50 0 empty empty empty 17 7 0 10 -262144 -1
-1;
#X obj 222 138 mod 16;
#X obj 222 164 hradio 15 0 0 16 empty empty empty 0 -8 0 10 -262144
-1 -1 14;
#X obj 39 297 select 0 4 8 12;
#X obj 224 72 metro 117;
#X obj 206 368 *~ 1;
#X obj 204 301 select 2 10;
#X obj 142 299 tgl 15 1 empty empty empty 17 7 0 10 -262144 -1 -1 13
13;
#X obj 285 302 tgl 15 1 empty empty empty 17 7 0 10 -262144 -1 -1 13
13;
#X obj 379 373 *~ 1;
#X obj 102 329 spigot;
#X obj 267 334 spigot;
#X obj 460 303 tgl 15 1 empty empty empty 17 7 0 10 -262144 -1 -1 4
4;
#X obj 442 335 spigot;
#X obj 379 302 select 6 14;
#X obj 71 406 sp/envelope 5 50;
#X obj 223 105 sp/count;
#X msg 21 90 stop;
#X text 17 10 15th June 2017 \; sequencer v2 with submodules and
envelopes;
#X obj 42 365 *~ 0.2;
#X text 44 521 Problem: still audible clicks when envelope value is
changed. Is there a way to prevent that? solved!;
#X obj 206 344 osc~ 120;
#X obj 379 349 osc~ 120;
#X obj 400 405 sp/envelope 500 50;
#X obj 234 405 sp/envelope 10 100;
#X connect 0 0 21 0;
#X connect 2 0 6 0;
#X connect 3 0 4 0;
#X connect 4 0 8 0;
#X connect 4 0 5 0;
#X connect 4 0 16 0;
#X connect 5 0 12 0;
#X connect 5 1 12 0;
#X connect 5 2 12 0;
#X connect 5 3 12 0;
#X connect 6 0 18 0;
#X connect 7 0 26 0;
#X connect 8 0 13 0;
#X connect 8 1 13 0;
#X connect 9 0 12 1;
#X connect 10 0 13 1;
#X connect 11 0 25 0;
#X connect 12 0 17 1;
#X connect 13 0 26 1;
#X connect 14 0 15 1;
#X connect 15 0 25 1;
#X connect 16 0 15 0;
#X connect 16 1 15 0;
#X connect 17 0 1 0;
#X connect 17 0 1 1;
#X connect 18 0 3 0;
#X connect 19 0 6 0;
#X connect 21 0 17 0;
#X connect 23 0 7 0;
#X connect 24 0 11 0;
#X connect 25 0 1 0;
#X connect 25 0 1 1;
#X connect 26 0 1 0;
#X connect 26 0 1 1;
