#N canvas 456 210 605 443 10;
#X text 20 15 16th June 2017 \; fade tone from left to right;
#X obj 143 159 hsl 266 20 -1 1 0 0 empty empty left\ -\ right -2 -8
0 10 -262144 -1 -1 6750 1;
#X obj 292 52 loadbang;
#X obj 16 146 metro 100;
#X obj 341 383 dac~;
#X obj 302 342 *~;
#X obj 396 342 *~;
#X obj 13 106 bng 15 250 50 0 empty empty empty 17 7 0 10 -262144 -1
-1;
#X msg 35 106 stop;
#X floatatom 143 185 5 0 0 0 - - -, f 5;
#X floatatom 317 303 5 0 0 0 - - -, f 5;
#X floatatom 411 302 5 0 0 0 - - -, f 5;
#X obj 316 274 min 1;
#X obj 410 273 min 1;
#X obj 314 243 expr 1-$f1;
#X obj 397 242 expr 1+$f1;
#X msg 226 98 -1 500;
#X obj 268 134 line;
#X msg 290 98 0 500;
#X msg 351 98 1 500;
#X obj 18 249 osc~ 120;
#X text 24 429 why are there these click noises when moving fader?
;
#X msg 83 248 30;
#X obj 60 297 sp/envelope 30 20;
#X connect 1 0 9 0;
#X connect 2 0 18 0;
#X connect 3 0 22 0;
#X connect 5 0 4 0;
#X connect 6 0 4 1;
#X connect 7 0 3 0;
#X connect 8 0 3 0;
#X connect 9 0 14 0;
#X connect 9 0 15 0;
#X connect 10 0 5 1;
#X connect 11 0 6 1;
#X connect 12 0 10 0;
#X connect 13 0 11 0;
#X connect 14 0 12 0;
#X connect 15 0 13 0;
#X connect 16 0 17 0;
#X connect 17 0 1 0;
#X connect 18 0 17 0;
#X connect 19 0 17 0;
#X connect 20 0 23 0;
#X connect 22 0 23 1;
#X connect 23 0 5 0;
#X connect 23 0 6 0;
