#N canvas 373 107 495 453 10;
#X obj 160 359 *~;
#X obj 187 254 f;
#X msg 187 277 0 \$1;
#X msg 140 232 1 \$1;
#X obj 140 176 t f f;
#X obj 187 308 line~;
#X obj 88 73 inlet;
#X obj 19 73 inlet~;
#X obj 175 73 inlet;
#X obj 246 73 inlet;
#X text 174 51 attack;
#X text 246 51 decay;
#X text 87 51 bang;
#X text 18 51 signal;
#X obj 24 429 outlet~;
#X text 18 18 Envelpoe Filter;
#X obj 187 201 delay;
#X obj 140 153 f;
#X obj 160 111 \$1;
#X obj 231 112 \$2;
#X obj 300 79 loadbang;
#X connect 0 0 14 0;
#X connect 1 0 2 0;
#X connect 2 0 5 0;
#X connect 3 0 5 0;
#X connect 4 0 3 0;
#X connect 4 1 16 0;
#X connect 5 0 0 1;
#X connect 6 0 17 0;
#X connect 6 0 18 0;
#X connect 6 0 19 0;
#X connect 7 0 0 0;
#X connect 8 0 18 1;
#X connect 9 0 19 1;
#X connect 16 0 1 0;
#X connect 17 0 4 0;
#X connect 18 0 17 1;
#X connect 19 0 1 1;
#X connect 20 0 18 0;
#X connect 20 0 19 0;
