#N canvas 63 200 475 485 10;
#X obj 23 409 *~;
#X obj 287 300 f;
#X msg 287 337 0 \$1;
#X msg 237 292 1 \$1;
#X obj 287 368 line~;
#X text 18 66 signal;
#X obj 23 459 outlet~;
#X obj 261 251 delay;
#X text 20 8 Envelope Filter;
#X obj 237 177 \$1;
#X obj 326 177 \$2;
#X obj 138 83 inlet trigger;
#X obj 253 83 inlet attack;
#X obj 344 83 inlet decay;
#X obj 138 111 route float bang;
#X obj 19 83 inlet~ signal;
#X obj 261 226 f;
#X obj 138 141 t f b;
#X text 19 27 any bang triggers the envelope \, a float will determine
it's length., f 73;
#X connect 0 0 6 0;
#X connect 1 0 2 0;
#X connect 2 0 4 0;
#X connect 3 0 4 0;
#X connect 4 0 0 1;
#X connect 7 0 1 0;
#X connect 9 0 3 0;
#X connect 9 0 16 0;
#X connect 10 0 1 1;
#X connect 11 0 14 0;
#X connect 12 0 9 1;
#X connect 13 0 10 1;
#X connect 14 0 17 0;
#X connect 14 1 10 0;
#X connect 14 1 9 0;
#X connect 15 0 0 0;
#X connect 16 0 7 0;
#X connect 17 0 16 0;
#X connect 17 1 9 0;
#X connect 17 1 10 0;
#X coords 0 0 1 1 85 60 0;
