#N canvas 253 141 908 506 10;
#X obj 155 133 bng 15 250 50 0 empty empty empty 17 7 0 10 -262144
-1 -1;
#X msg 125 184 1 \, 0 1000;
#X obj 125 208 line~;
#X obj 110 242 *~;
#X obj 103 270 dac~;
#X obj 65 165 osc~ 120;
#X obj 65 189 *~ 1;
#X text 62 21 15th June 2017;
#X text 62 36 figure out envelopes and phase sync;
#X msg 110 132 0;
#X text 341 147 attack;
#X text 445 211 decay;
#X obj 349 192 t a b;
#X obj 343 125 bng 15 250 50 0 empty empty empty 17 7 0 10 -262144
-1 -1;
#X obj 369 304 *~;
#X obj 372 345 dac~;
#X obj 295 256 *~ 1;
#X obj 389 240 line~;
#X obj 295 232 osc~ 120;
#X obj 614 399 *~;
#X obj 616 467 dac~;
#X obj 594 193 f;
#X obj 619 163 nbx 4 14 5 1000 1 1 empty empty attack 0 -8 0 10 -262144
-1 -1 5 256 0;
#X text 668 163 ms;
#X msg 594 129 bang;
#X obj 641 294 f;
#X obj 678 291 nbx 4 14 10 10000 1 1 empty empty decay 0 -8 0 10 -262144
-1 -1 352.269 256 0;
#X msg 641 317 0 \$1;
#X msg 594 272 1 \$1;
#X obj 641 241 delay;
#X obj 594 216 t f f;
#X obj 641 348 line~;
#X obj 530 353 *~ 1;
#X text 65 98 phase sync;
#X text 293 93 manual envelope;
#X text 533 91 automatic envelope;
#X msg 395 212 0 1000;
#X obj 394 188 delay 50;
#X msg 343 165 1 50;
#X obj 530 329 osc~ 200;
#X connect 0 0 1 0;
#X connect 0 0 9 0;
#X connect 1 0 2 0;
#X connect 2 0 3 1;
#X connect 3 0 4 0;
#X connect 3 0 4 1;
#X connect 5 0 6 0;
#X connect 6 0 3 0;
#X connect 9 0 5 1;
#X connect 12 0 17 0;
#X connect 12 1 37 0;
#X connect 13 0 38 0;
#X connect 14 0 15 0;
#X connect 14 0 15 1;
#X connect 16 0 14 0;
#X connect 17 0 14 1;
#X connect 18 0 16 0;
#X connect 19 0 20 0;
#X connect 19 0 20 1;
#X connect 21 0 30 0;
#X connect 22 0 21 1;
#X connect 24 0 21 0;
#X connect 25 0 27 0;
#X connect 26 0 25 1;
#X connect 27 0 31 0;
#X connect 28 0 31 0;
#X connect 29 0 25 0;
#X connect 30 0 28 0;
#X connect 30 1 29 0;
#X connect 31 0 19 1;
#X connect 32 0 19 0;
#X connect 36 0 17 0;
#X connect 37 0 36 0;
#X connect 38 0 12 0;
#X connect 39 0 32 0;
