#N canvas 495 23 564 382 10;
#X obj 87 144 sp/count;
#X obj 88 106 bng 15 250 50 0 empty empty empty 17 7 0 10 -262144 -1
-1;
#X floatatom 87 202 5 0 0 0 - - -, f 5;
#X msg 123 104 0;
#X text 27 18 15th June 2017;
#X text 27 35 trying out subpatches;
#X connect 0 0 2 0;
#X connect 1 0 0 0;
#X connect 3 0 0 0;
