#N canvas 111 92 703 498 10;
#X obj 102 324 line~;
#X obj 42 281 noise~;
#X obj 87 358 *~;
#X obj 80 386 dac~;
#X obj 19 12 bng 15 250 50 0 empty empty empty 17 7 0 10 -262144 -1
-1;
#X obj 263 47 + 1;
#X obj 223 47 i;
#X obj 222 78 mod 16;
#X obj 222 104 hradio 15 0 0 16 empty empty empty 0 -8 0 10 -262144
-1 -1 0;
#X obj 39 237 select 0 4 8 12;
#X text 21 49 14 Juni 2017;
#X obj 224 12 metro 117;
#X obj 266 327 line~;
#X obj 251 361 *~;
#X obj 244 389 dac~;
#X obj 206 284 osc~ 120;
#X obj 206 308 *~ 1;
#X msg 266 303 1 \, 0 500;
#X obj 204 241 select 2 10;
#X obj 439 332 line~;
#X obj 424 366 *~;
#X obj 417 394 dac~;
#X obj 379 289 osc~ 120;
#X obj 42 305 *~ 0.1;
#X msg 102 300 1 \, 0 50;
#X text 21 65 super cool techno sequencer;
#X obj 142 239 tgl 15 0 empty empty empty 17 7 0 10 -262144 -1 -1 0
13;
#X obj 285 242 tgl 15 0 empty empty empty 17 7 0 10 -262144 -1 -1 0
13;
#X obj 379 313 *~ 1;
#X obj 102 269 spigot;
#X obj 267 274 spigot;
#X obj 460 243 tgl 15 0 empty empty empty 17 7 0 10 -262144 -1 -1 0
4;
#X obj 442 275 spigot;
#X obj 379 242 select 6 14;
#X msg 439 308 0 \, 1 500;
#X connect 0 0 2 1;
#X connect 1 0 23 0;
#X connect 2 0 3 0;
#X connect 2 0 3 1;
#X connect 4 0 11 0;
#X connect 5 0 6 1;
#X connect 6 0 5 0;
#X connect 6 0 7 0;
#X connect 7 0 8 0;
#X connect 8 0 18 0;
#X connect 8 0 9 0;
#X connect 8 0 33 0;
#X connect 9 0 29 0;
#X connect 9 1 29 0;
#X connect 9 2 29 0;
#X connect 9 3 29 0;
#X connect 11 0 6 0;
#X connect 12 0 13 1;
#X connect 13 0 14 0;
#X connect 13 0 14 1;
#X connect 15 0 16 0;
#X connect 16 0 13 0;
#X connect 17 0 12 0;
#X connect 18 0 30 0;
#X connect 18 1 30 0;
#X connect 19 0 20 1;
#X connect 20 0 21 0;
#X connect 20 0 21 1;
#X connect 22 0 28 0;
#X connect 23 0 2 0;
#X connect 24 0 0 0;
#X connect 26 0 29 1;
#X connect 27 0 30 1;
#X connect 28 0 20 0;
#X connect 29 0 24 0;
#X connect 30 0 17 0;
#X connect 31 0 32 1;
#X connect 32 0 34 0;
#X connect 33 0 32 0;
#X connect 33 1 32 0;
#X connect 34 0 19 0;
