#N canvas 657 120 539 344 10;
#X obj 35 18 inlet;
#X obj 34 191 outlet;
#X obj 35 134 int;
#X obj 76 133 + 1;
#X obj 35 58 route bang float;
#X obj 81 91 - 1;
#X text 86 18 bang counts one up \, float sets the current value;
#X connect 0 0 4 0;
#X connect 2 0 3 0;
#X connect 3 0 2 1;
#X connect 3 0 1 0;
#X connect 4 0 2 0;
#X connect 4 1 5 0;
#X connect 5 0 2 0;
