#N canvas 91 254 691 508 10;
#X obj 23 409 *~;
#X text 18 66 signal;
#X obj 23 459 outlet~;
#X text 20 8 Envelope Filter;
#X obj 236 185 \$1;
#X obj 328 185 \$2;
#X obj 138 83 inlet trigger;
#X obj 253 83 inlet attack;
#X obj 344 83 inlet decay;
#X obj 19 83 inlet~ signal;
#X obj 138 146 t f b;
#X text 19 27 any bang triggers the envelope \, a float will determine
it's length., f 73;
#X obj 139 346 vline~;
#X obj 139 259 pack f f f;
#X msg 138 292 0 0 0 \, 1 \$2 0 \, 0 \$3 \$1;
#X obj 365 300 print;
#X obj 172 216 t f f;
#X obj 138 111 route float bang;
#X obj 184 139 t b b;
#X connect 0 0 2 0;
#X connect 4 0 16 0;
#X connect 5 0 13 2;
#X connect 6 0 17 0;
#X connect 7 0 4 1;
#X connect 8 0 5 1;
#X connect 9 0 0 0;
#X connect 10 0 13 0;
#X connect 10 1 4 0;
#X connect 10 1 5 0;
#X connect 12 0 0 1;
#X connect 13 0 14 0;
#X connect 13 0 15 0;
#X connect 14 0 12 0;
#X connect 16 0 13 0;
#X connect 16 1 13 1;
#X connect 17 0 10 0;
#X connect 17 1 18 0;
#X connect 18 0 4 0;
#X connect 18 1 5 0;
#X coords 0 0 1 1 85 60 0;
