#N canvas 263 126 495 453 10;
#X obj 22 329 *~;
#X obj 137 224 f;
#X msg 137 247 0 \$1;
#X msg 90 202 1 \$1;
#X obj 90 146 t f f;
#X obj 137 278 line~;
#X obj 19 63 inlet~;
#X text 18 46 signal;
#X obj 24 429 outlet~;
#X obj 137 171 delay;
#X text 180 16 Envelope Filter;
#X obj 160 106 \$1;
#X obj 231 105 \$2;
#X obj 88 63 inlet trigger;
#X obj 195 63 inlet attack;
#X obj 286 63 inlet decay;
#X connect 0 0 8 0;
#X connect 1 0 2 0;
#X connect 2 0 5 0;
#X connect 3 0 5 0;
#X connect 4 0 3 0;
#X connect 4 1 9 0;
#X connect 5 0 0 1;
#X connect 6 0 0 0;
#X connect 9 0 1 0;
#X connect 11 0 4 0;
#X connect 12 0 1 1;
#X connect 13 0 11 0;
#X connect 13 0 12 0;
#X connect 14 0 11 1;
#X connect 15 0 12 1;
#X coords 0 0 1 1 85 60 0;
