#N canvas 189 184 450 419 10;
#X obj 34 345 outlet run;
#X obj 163 344 outlet finished;
#X obj 32 92 inlet start;
#X msg 81 180 0;
#X obj 81 212 count;
#X obj 87 275 select 1;
#X obj 52 241 <;
#X obj 32 200 - 1;
#X obj 163 306 t b b;
#X obj 177 93 inlet delay;
#X obj 161 169 \$1;
#X obj 169 239 delay;
#X obj 31 124 t b f;
#X text 27 9 time delayed loop;
#X text 28 30 the left inlet takes a float with the number of iteration\, the right one the delay time.;
#X connect 2 0 12 0;
#X connect 3 0 4 0;
#X connect 4 0 6 0;
#X connect 5 0 0 0;
#X connect 5 0 11 0;
#X connect 5 1 8 0;
#X connect 6 0 5 0;
#X connect 7 0 6 1;
#X connect 8 0 1 0;
#X connect 8 1 0 0;
#X connect 9 0 10 1;
#X connect 10 0 11 1;
#X connect 11 0 4 0;
#X connect 12 0 3 0;
#X connect 12 0 10 0;
#X connect 12 1 7 0;
